<?xml version="1.0" encoding="UTF-8" standalone="no"?>
<!-- Created with Inkscape (http://www.inkscape.org/) -->

<svg
   version="1.1"
   id="svg8156"
   width="800"
   height="800"
   viewBox="0 0 800 800"
   sodipodi:docname="restaurant-sign-pdv.svg"
   inkscape:version="1.2 (dc2aedaf03, 2022-05-15)"
   xmlns:inkscape="http://www.inkscape.org/namespaces/inkscape"
   xmlns:sodipodi="http://sodipodi.sourceforge.net/DTD/sodipodi-0.dtd"
   xmlns="http://www.w3.org/2000/svg"
   xmlns:svg="http://www.w3.org/2000/svg">
  <defs
     id="defs8160">
    <clipPath
       clipPathUnits="userSpaceOnUse"
       id="clipPath8172">
      <path
         d="M 0,600 H 600 V 0 H 0 Z"
         id="path8170" />
    </clipPath>
  </defs>
  <sodipodi:namedview
     id="namedview8158"
     pagecolor="#ffffff"
     bordercolor="#000000"
     borderopacity="0.25"
     inkscape:showpageshadow="2"
     inkscape:pageopacity="0.0"
     inkscape:pagecheckerboard="0"
     inkscape:deskcolor="#d1d1d1"
     showgrid="false"
     inkscape:zoom="1.04625"
     inkscape:cx="400"
     inkscape:cy="400.4779"
     inkscape:window-width="1920"
     inkscape:window-height="1017"
     inkscape:window-x="-8"
     inkscape:window-y="-8"
     inkscape:window-maximized="1"
     inkscape:current-layer="g8164">
    <inkscape:page
       x="0"
       y="0"
       id="page8162"
       width="800"
       height="800" />
  </sodipodi:namedview>
  <g
     id="g8164"
     inkscape:groupmode="layer"
     inkscape:label="Page 1"
     transform="matrix(1.3333333,0,0,-1.3333333,0,800)">
    <g
       id="g8166">
      <g
         id="g8168"
         clip-path="url(#clipPath8172)">
        <g
           id="g8174"
           transform="translate(446.915,141.7988)">
          <path
             d="m 0,0 c -0.052,3.277 -0.104,6.674 -0.154,10.174 47.996,42.197 78.343,104.015 78.343,172.795 0,68.838 -30.398,130.7 -78.463,172.901 0.004,3.53 0.008,6.968 0.01,10.291 C 52.411,322.486 86.02,256.581 86.02,182.969 86.02,109.48 52.521,43.676 0,0 m -0.934,115.648 v 0 c 1.434,0 2.597,1.165 2.597,2.598 0,1.432 -1.161,2.594 -2.593,2.596 0.002,3.004 0.005,6.019 0.009,9.049 5.86,16.619 9.06,34.48 9.06,53.078 0,18.308 -3.099,35.903 -8.785,52.3 0.152,43.883 0.317,85.404 0.368,118.442 C 46.834,311.832 76.571,250.812 76.571,182.969 76.571,115.17 46.873,54.184 -0.186,12.309 -0.599,41.281 -0.948,77.32 -0.934,115.648 m 0.251,108.832 c 3.636,-13.227 5.588,-27.145 5.588,-41.511 0,-14.663 -2.028,-28.86 -5.81,-42.33 0.044,27.664 0.129,56.112 0.222,83.841 m -5.963,-102.541 -3.234,0.034 3.773,208.084 z M -15,106.59 C -37.014,67.293 -75.45,38.391 -120.954,29.248 c -0.418,15.457 -1.262,30.615 -2.076,43.686 -2.995,48.058 -6.319,101.985 -4.705,164.815 l 0.549,-0.03 c 0.048,-0.003 0.097,-0.004 0.145,-0.004 1.428,0 2.621,1.118 2.695,2.56 0.08,1.492 -1.065,2.764 -2.555,2.842 l -0.451,0.024 c 0.241,6.748 1.381,25.838 6.672,29.751 18.921,13.986 32.939,28.42 37.142,51.168 15.669,-7.623 29.886,-17.776 42.115,-29.932 -0.906,-44.627 -0.906,-44.628 -0.906,-44.628 v -69.073 c 0,0 23.283,-21.748 26.845,-59.607 -1.327,-0.117 -2.37,-1.218 -2.37,-2.574 0,-1.433 1.163,-2.598 2.596,-2.598 h 0.135 c 0.01,-0.234 0.029,-0.462 0.038,-0.699 0.087,-2.363 0.111,-5.179 0.085,-8.359 M -21.766,-4.701 c -29.966,-20.84 -65.132,-34.694 -103.13,-39.186 3.945,18.438 4.607,44.377 4.023,69.858 44.714,8.816 82.803,36.31 105.758,73.996 -0.67,-26.469 -3.879,-70.338 -6.651,-104.668 m -0.986,-12.047 c -30.795,-19.981 -66.471,-33.045 -104.819,-36.957 0.863,2.484 1.627,5.217 2.303,8.148 38.022,4.401 73.246,18.102 103.333,38.772 -0.278,-3.432 -0.551,-6.766 -0.817,-9.963 m -76.759,422.107 c 22.38,-5.27 43.496,-13.842 62.815,-25.17 -2.011,-10.031 -3.429,-22.158 -3.728,-36.879 -0.37,-18.238 -0.669,-32.915 -0.909,-44.75 -12.21,11.683 -26.263,21.454 -41.671,28.833 1.123,8.138 1.05,17.312 -0.428,27.849 -2.62,18.674 -8.287,36.033 -16.079,50.117 m -7.152,11.185 c 25.79,-4.982 50.11,-14.135 72.225,-26.742 -0.679,-2.479 -1.318,-5.128 -1.914,-7.939 -19.745,11.514 -41.346,20.178 -64.242,25.41 -1.908,3.292 -3.934,6.393 -6.069,9.271 m -56.719,-3.789 c -24.988,-1.235 -48.933,-6.485 -71.221,-15.101 -0.253,2.664 -0.516,5.358 -0.787,8.081 24.373,9.166 50.631,14.449 78.021,15.072 -2.099,-2.482 -4.107,-5.172 -6.013,-8.052 m -20.358,-57.513 c -0.786,-5.6 -1.165,-10.806 -1.189,-15.686 -15.342,-3.234 -29.881,-8.664 -43.267,-15.958 -1.479,17.003 -3.425,42.715 -6.246,72.386 21.899,8.517 45.421,13.751 69.966,15.091 -9.466,-14.971 -16.289,-34.628 -19.264,-55.833 m -56.57,40.121 c -2.962,-1.237 -5.891,-2.542 -8.791,-3.9 l -0.224,8.53 c 2.984,1.344 6.006,2.624 9.053,3.847 z m -0.285,-66.953 c -0.306,-4.933 -3.947,-6.83 -6.718,-4.681 l -1.741,65.972 c 2.882,1.361 5.792,2.671 8.739,3.912 z m -41.246,0.94 1.766,42.628 c 3.172,2.158 6.396,4.242 9.679,6.241 l -3.826,-51.966 c -2.174,-2.923 -8.034,-2.816 -7.619,3.097 m 2.248,54.261 c 3.293,2.103 6.641,4.125 10.04,6.068 l -0.698,-9.49 c -3.301,-1.988 -6.55,-4.055 -9.741,-6.201 z m 26.479,14.62 -0.558,-8.969 c -3.677,-1.822 -7.298,-3.738 -10.861,-5.746 l -0.1,8.9 c 3.779,2.041 7.622,3.977 11.519,5.815 m -10.74,-74.749 -0.658,58.192 c 3.517,2.002 7.094,3.908 10.724,5.724 l -3.914,-62.916 c -1.533,-3.312 -4.494,-3.181 -6.152,-1 m 4.88,-344.093 c 32.006,-16.905 68.446,-26.494 107.088,-26.494 0.925,0 1.845,0.023 2.768,0.035 0.616,-2.815 1.324,-5.43 2.138,-7.805 -1.633,-0.033 -3.266,-0.063 -4.906,-0.063 -38.877,0 -75.603,9.375 -108.043,25.981 0.36,2.697 0.678,5.484 0.955,8.346 m 0.923,83.953 c 28.259,-25.106 65.433,-40.385 106.114,-40.397 -1.209,-25.205 -1.114,-50.552 2.48,-68.404 -0.811,-0.008 -1.617,-0.029 -2.429,-0.029 -38.608,0 -75.001,9.638 -106.922,26.617 2.371,26.019 1.653,57.644 0.757,82.213 m -53.861,119.627 c 0,-36.164 12.063,-69.559 32.371,-96.387 -0.746,-6.736 -1.502,-13.359 -2.261,-19.848 -2.302,-19.707 -4.953,-44.505 -5.772,-67.445 -56.239,41.654 -92.77,108.479 -92.77,183.68 0,74.509 35.861,140.797 91.222,182.527 -2.209,-16.433 -4.009,-30.484 -5.441,-40.885 -3.069,-22.243 2.925,-38.622 9.845,-52.496 -17.165,-25.492 -27.194,-56.17 -27.194,-89.146 m 24.091,-195.131 c -61.596,43.039 -101.971,114.453 -101.971,195.131 0,80.876 40.575,152.443 102.428,195.449 -0.503,-3.651 -0.989,-7.216 -1.455,-10.678 -56.478,-41.964 -93.141,-109.163 -93.141,-184.771 0,-76.131 37.177,-143.731 94.32,-185.633 -0.099,-3.215 -0.162,-6.387 -0.181,-9.498 m 380.31,195.131 c 0,77.514 -36.283,146.707 -92.751,191.509 -0.005,29.945 -0.161,49.333 -0.607,51.344 -2.284,10.276 -11.394,6.54 -15.961,-0.31 -2.676,-4.014 -9.921,-11.989 -15.693,-29.369 -24.574,13.814 -51.758,23.502 -80.619,28.119 -4.012,4.187 -8.305,7.647 -12.819,10.234 18.599,-13.848 33.204,-43.01 37.909,-76.542 5.86,-41.77 -10.035,-62.783 -37.58,-83.145 -5.015,-3.708 -6.315,-23.968 -6.392,-31.459 l -1.685,0.017 c 0.013,1.133 0.363,27.833 7.076,32.796 27.048,19.995 42.657,40.612 36.913,81.556 -5.038,35.912 -21.49,66.697 -41.944,78.54 -3.296,0.339 -6.955,-0.281 -10.238,-2.158 -3.194,-1.827 -6.266,-4.102 -9.201,-6.766 -0.262,0.002 -0.522,0.01 -0.783,0.01 -29.565,0 -57.92,-5.28 -84.172,-14.942 -0.338,3.327 -0.687,6.686 -1.048,10.078 l -3.086,0.041 -0.051,-11.712 c -3.121,-1.215 -6.208,-2.498 -9.266,-3.834 l -0.412,15.617 -1.676,0.031 -1.06,-17.037 c -4.082,-1.856 -8.099,-3.83 -12.059,-5.9 l -0.273,24.229 -2.039,0.063 -1.955,-26.568 c -3.481,-1.91 -6.91,-3.9 -10.285,-5.971 l 1.361,32.861 -2.658,0.589 c -2.061,-13.183 -3.922,-25.915 -5.599,-37.847 -66.274,-43.756 -110.098,-118.888 -110.098,-204.074 0,-84.5 43.113,-159.112 108.491,-203.016 0.424,-20.926 3.233,-38.105 10.51,-44.924 16.097,20.918 11.168,100.094 9.24,131.041 -1.823,29.241 -3.796,60.938 -4.583,95.814 -1.752,-25.066 -4.01,-48.501 -6.417,-70.568 -18.647,25.797 -29.656,57.461 -29.656,91.653 0,31.661 9.442,61.155 25.647,85.829 7.57,-14.557 15.455,-26.511 13.438,-40.074 l 2.324,-0.32 -2.531,0.135 c -1.067,0.058 -2.037,-0.562 -2.479,-1.489 -0.118,-0.247 -0.19,-0.517 -0.223,-0.801 -0.007,-0.057 -0.023,-0.109 -0.025,-0.167 -0.007,-0.106 0.005,-0.208 0.013,-0.312 0.069,-0.989 0.684,-1.831 1.567,-2.206 0.272,-0.114 0.563,-0.193 0.875,-0.211 l 0.459,-0.023 c -0.375,-14.043 -0.957,-27.606 -1.69,-40.742 0.326,-43.123 2.72,-81.52 4.897,-116.416 3.247,-52.158 4.922,-112.856 -9.386,-131.897 l 1.834,0.016 c 6.399,4.26 10.476,15.395 13.004,30.035 32.85,-16.453 69.893,-25.734 109.067,-25.734 2.568,0 5.123,0.053 7.672,0.133 0.931,-1.694 1.953,-3.166 3.073,-4.399 19.014,17.457 10.051,105.795 6.644,139.379 -2.562,25.24 -5.296,52.264 -7.429,81.492 -1.67,-29.326 -3.959,-56.547 -6.301,-82.017 -1.287,-13.996 -2.678,-30.395 -3.547,-47 -0.038,0 -0.075,-0.002 -0.112,-0.002 -40.999,0 -78.366,15.824 -106.333,41.677 -1.701,45.217 -3.51,95.935 -0.445,154.898 l 1.164,-0.062 c 0.046,-0.002 0.092,-0.004 0.138,-0.004 1.371,0 2.517,1.075 2.591,2.46 0.075,1.433 -1.024,2.653 -2.457,2.729 l -0.475,0.025 c -1.883,26.571 33.069,45.507 29.779,92.143 13.284,7.398 27.748,12.92 43.034,16.209 0.901,-30.081 16.302,-47.028 38.398,-63.361 5.129,-3.792 6.357,-21.844 6.646,-29.094 l -0.139,0.008 c -1.481,0.09 -2.764,-1.065 -2.841,-2.557 -0.079,-1.491 1.065,-2.763 2.555,-2.84 l 0.907,-0.049 c -0.08,-24.359 -0.764,-47.397 -1.828,-69.274 2.223,-34.553 5.413,-66.068 8.37,-95.213 5.818,-57.338 10.184,-124.715 -7.134,-140.734 0.314,-0.281 0.634,-0.547 0.962,-0.791 l 2.583,0.086 c 2.261,1.586 4.216,4.003 5.908,7.105 39.021,3.398 75.44,16.002 107.075,35.631 -1.518,-18.016 -2.631,-30.219 -2.631,-30.219 0,0 4.253,-4.211 13.603,-4.07 9.347,0.144 13.545,4.348 13.545,4.348 0,0 -0.468,17.888 -0.954,46.548 56.24,44.813 92.354,113.86 92.354,191.192"
             style="fill:#000000;fill-opacity:1;fill-rule:nonzero;stroke:none"
             id="path8176" />
        </g>
        <g
           id="g8178"
           transform="translate(343.3662,274.6152)">
          <path
             d="M 0,0 0.049,-0.021 Z"
             style="fill:#000000;fill-opacity:1;fill-rule:nonzero;stroke:none"
             id="path8180" />
        </g>
      </g>
    </g>
  </g>
</svg>
